<?xml version="1.0" encoding="utf-8"?>
<!DOCTYPE svg PUBLIC "-//W3C//DTD SVG 1.1//EN" "http://www.w3.org/Graphics/SVG/1.1/DTD/svg11.dtd">
<svg style="width:308px;height:308px;" version="1.1" id="图形" xmlns="http://www.w3.org/2000/svg" xmlns:xlink="http://www.w3.org/1999/xlink" x="0px" y="0px" width="1024px" height="1024px" viewBox="0 0 1024 1024" enable-background="new 0 0 1024 1024" xml:space="preserve">
  <path class="svgpath" data-index="path_0" fill="#ecf0f1" d="M510.651282 63.137992c-245.514693 0-444.543655 201.320145-444.543655 449.660186s199.028962 449.660186 444.543655 449.660186 444.543655-201.320145 444.543655-449.660186S756.165975 63.137992 510.651282 63.137992zM803.159266 809.173237c-38.020942 38.458917-82.279958 68.64645-131.547035 89.724511-50.967812 21.805632-105.123222 32.861432-160.960948 32.861432-55.838749 0-109.99416-11.056823-160.960948-32.861432-49.267077-21.078061-93.526093-51.265594-131.547035-89.724511-38.045501-38.482453-67.913762-83.294055-88.777953-133.190465-21.60404-51.665707-32.558533-106.568131-32.558533-163.184593s10.954493-111.51991 32.558533-163.184593c20.86419-49.895387 50.733475-94.706989 88.777953-133.190465 38.020942-38.458917 82.279958-68.64645 131.547035-89.724511C400.657122 104.892979 454.812533 93.837178 510.651282 93.837178c55.838749 0 109.99416 11.056823 160.960948 32.861432 49.267077 21.078061 93.527117 51.265594 131.547035 89.724511 38.045501 38.482453 67.913762 83.294055 88.777953 133.190465 21.60404 51.665707 32.558533 106.568131 32.558533 163.184593s-10.954493 111.51991-32.558533 163.184593C871.074052 725.879182 841.204767 770.690784 803.159266 809.173237z" />
<path class="svgpath" data-index="path_1" fill="#ecf0f1" d="M791.338033 734.973304c-0.047072-0.25071-0.102331-0.49835-0.149403-0.748037-0.016373-0.084934-0.032746-0.169869-0.051165-0.25378-14.211676-74.257238-56.369845-138.623197-118.811989-181.323719-26.885324-18.384719-56.152904-31.7931-86.697571-40.028669 50.89925-28.855188 85.324294-83.529415 85.324294-146.099473 0-92.53758-75.284637-167.822217-167.822217-167.822217s-167.822217 75.284637-167.822217 167.822217c0 65.060785 37.214577 121.593336 91.475388 149.429311-44.639686 13.894452-84.96102 38.46608-117.991298 72.143087-39.563064 40.33873-66.005296 90.821495-76.55149 146.075937-0.335644 1.26276-0.532119 2.581802-0.532119 3.949962 0 8.477069 6.872524 15.349593 15.349593 15.349593 7.390317 0 13.556761-5.223978 15.018042-12.17939l0.050142 0.00921c18.958794-102.354156 100.45183-184.03241 202.784496-203.247031 10.251481-1.924839 20.524452-3.212158 30.772864-3.882424 2.469238 0.10847 4.949732 0.173962 7.445576 0.173962 4.925173 0 9.79918-0.226151 14.617929-0.64366 48.699142 1.054005 96.097662 16.150842 137.247874 44.290739 55.841819 38.186717 93.504604 95.79681 106.089224 162.250314 0.004093 0.021489 0.008186 0.044002 0.013303 0.065492 0.021489 0.112564 0.046049 0.223081 0.067538 0.334621l0.01842-0.00307c1.569752 6.811126 7.6574 11.893888 14.944364 11.893888 8.477069 0 15.349593-6.872524 15.349593-15.349593 0-0.74906-0.071631-1.480724-0.176009-2.201132L791.338033 734.973304zM366.007975 366.519628c0-75.610048 61.512982-137.123031 137.123031-137.123031s137.123031 61.512982 137.123031 137.123031c0 70.992891-54.231135 129.554658-123.44245 136.442532-7.095605-0.11154-14.213723 0.039909-21.344121 0.462534C423.409312 499.434823 366.007975 439.558108 366.007975 366.519628z" />

</svg>
