<?xml version="1.0" encoding="utf-8"?>
<!-- Generated by IcoMoon.io -->
<!DOCTYPE svg PUBLIC "-//W3C//DTD SVG 1.1//EN" "http://www.w3.org/Graphics/SVG/1.1/DTD/svg11.dtd">
<svg version="1.1" xmlns="http://www.w3.org/2000/svg" xmlns:xlink="http://www.w3.org/1999/xlink" width="1024" height="1024" viewBox="0 0 1024 1024">
<g id="icomoon-ignore">
</g>
<path d="M320 320h-213.333v-213.333h213.333v213.333zM149.333 277.333h128v-128h-128v128z"></path>
<path d="M618.667 320h-213.333v-213.333h213.333v213.333zM448 277.333h128v-128h-128v128z"></path>
<path d="M917.333 320h-213.333v-213.333h213.333v213.333zM746.667 277.333h128v-128h-128v128z"></path>
<path d="M320 618.667h-213.333v-213.333h213.333v213.333zM149.333 576h128v-128h-128v128z"></path>
<path d="M618.667 618.667h-213.333v-213.333h213.333v213.333zM448 576h128v-128h-128v128z"></path>
<path d="M917.333 618.667h-213.333v-213.333h213.333v213.333zM746.667 576h128v-128h-128v128z"></path>
<path d="M320 917.333h-213.333v-213.333h213.333v213.333zM149.333 874.667h128v-128h-128v128z"></path>
<path d="M618.667 917.333h-213.333v-213.333h213.333v213.333zM448 874.667h128v-128h-128v128z"></path>
<path d="M917.333 917.333h-213.333v-213.333h213.333v213.333zM746.667 874.667h128v-128h-128v128z"></path>
</svg>
