<?xml version="1.0" encoding="utf-8"?>
<!-- Generated by IcoMoon.io -->
<!DOCTYPE svg PUBLIC "-//W3C//DTD SVG 1.1//EN" "http://www.w3.org/Graphics/SVG/1.1/DTD/svg11.dtd">
<svg version="1.1" xmlns="http://www.w3.org/2000/svg" xmlns:xlink="http://www.w3.org/1999/xlink" width="1024" height="1024" viewBox="0 0 1024 1024">
<g id="icomoon-ignore">
</g>
<path d="M502.869 914.688l-293.888-328.107c-3.499-3.968-7.125-7.808-10.709-11.605-8.789-9.301-17.877-18.901-25.6-30.251-36.395-53.632-43.989-121.045-20.267-180.437 23.808-59.648 76.032-103.552 139.733-117.333 13.099-2.816 26.496-4.267 39.808-4.267 73.301 0 138.539 41.941 170.88 104.149 32.512-63.317 98.347-103.808 173.525-103.808l9.259 0.213c85.504 3.797 161.877 70.485 177.664 155.093 11.819 63.701-4.608 120.96-48.896 170.24-37.291 41.472-74.411 83.072-111.488 124.757l-200.021 221.355zM331.947 285.355c-10.283 0-20.651 1.109-30.763 3.328-50.517 10.923-90.325 44.245-109.141 91.435-18.731 46.891-12.928 98.091 15.957 140.544 5.803 8.533 13.312 16.512 21.333 24.96 3.925 4.181 7.893 8.363 11.648 12.629l261.973 295.424 168.064-188.757c37.12-41.728 74.24-83.413 111.573-124.928 35.456-39.424 48.128-83.2 38.741-133.888-12.245-65.621-71.424-117.333-137.685-120.277l-7.339-0.171c-68.821 0-123.648 51.584-155.008 106.965-3.072 5.419-21.333 36.651-21.333 36.651l-18.005-40.021c-36.608-66.603-75.563-103.893-150.016-103.893z"></path>
</svg>
