<?xml version="1.0" encoding="utf-8"?>
<!-- Generated by IcoMoon.io -->
<!DOCTYPE svg PUBLIC "-//W3C//DTD SVG 1.1//EN" "http://www.w3.org/Graphics/SVG/1.1/DTD/svg11.dtd">
<svg version="1.1" xmlns="http://www.w3.org/2000/svg" xmlns:xlink="http://www.w3.org/1999/xlink" width="1024" height="1024" viewBox="0 0 1024 1024">
<g id="icomoon-ignore">
</g>
<path fill="rgb(39, 38, 54)" d="M511.872 1023.77c-282.266 0-511.872-229.658-511.872-511.898 0-282.214 229.606-511.872 511.872-511.872 282.24 0 511.898 229.658 511.898 511.872 0 282.24-229.658 511.898-511.898 511.898zM511.872 19.712c-271.411 0-492.16 220.749-492.16 492.16s220.774 492.186 492.186 492.186c271.36 0 492.186-220.774 492.186-492.186s-220.851-492.16-492.211-492.16z"></path>
<path fill="rgb(39, 38, 54)" d="M627.814 507.725c-18.253-3.533-9.37-13.363-9.37-13.363s17.843-29.414-3.533-50.816c-26.496-26.496-90.88 3.379-90.88 3.379-24.602 7.629-18.074-3.482-14.618-22.4 0-22.272-7.629-60.006-73.139-37.734-65.434 22.4-121.626 100.89-121.626 100.89-39.091 52.147-33.894 92.442-33.894 92.442 9.754 88.986 104.294 113.408 177.818 119.194 77.363 6.067 181.786-26.675 213.453-93.926 31.642-67.354-25.907-94.003-44.211-97.664zM464.282 674.227c-76.8 3.584-138.88-34.918-138.88-86.17 0-51.302 62.080-92.467 138.88-96 76.851-3.533 139.059 28.134 139.059 79.334 0 51.251-62.208 99.354-139.059 102.835z"></path>
<path fill="rgb(39, 38, 54)" d="M448.947 525.85c-77.235 9.037-68.326 81.382-68.326 81.382s-0.794 22.912 20.71 34.586c45.21 24.499 91.725 9.677 115.251-20.71 23.526-30.362 9.728-104.243-67.635-95.258zM429.466 627.405c-14.438 1.69-26.035-6.63-26.035-18.688 0-12.006 10.342-24.602 24.755-26.086 16.563-1.587 27.341 7.962 27.341 20.045 0 11.981-11.699 23.091-26.061 24.73zM475.008 588.621c-4.89 3.661-10.906 3.149-13.491-1.229-2.688-4.275-1.69-11.11 3.251-14.72 5.709-4.275 11.674-3.046 14.259 1.229 2.586 4.378 0.742 10.957-4.019 14.72z"></path>
<path fill="rgb(39, 38, 54)" d="M665.421 476.39c6.221 0 11.52-4.608 12.416-10.598 0.102-0.461 0.154-0.845 0.154-1.357 9.446-84.813-69.504-70.221-69.504-70.221-7.014 0-12.621 5.658-12.621 12.749 0 6.963 5.606 12.646 12.621 12.646 56.704-12.518 44.186 44.186 44.186 44.186 0 6.989 5.734 12.595 12.749 12.595z"></path>
<path fill="rgb(39, 38, 54)" d="M656.23 328.346c-27.29-6.4-55.347-0.87-63.232 0.64-0.589 0.051-1.178 0.64-1.715 0.742-0.282 0.051-0.435 0.333-0.435 0.333-7.757 2.202-13.414 9.37-13.414 17.843 0 10.112 8.192 18.406 18.406 18.406 0 0 9.933-1.331 16.666-3.968 6.682-2.688 63.206-1.997 91.29 45.158 15.334 34.406 6.733 57.446 5.683 61.158 0 0-3.635 8.934-3.635 17.741 0 10.163 8.192 16.538 18.355 16.538 8.474 0 15.616-1.178 17.69-15.514h0.102c30.080-100.48-36.941-147.686-85.76-159.078z"></path>
</svg>
