<?xml version="1.0" encoding="utf-8"?>
<!-- Generated by IcoMoon.io -->
<!DOCTYPE svg PUBLIC "-//W3C//DTD SVG 1.1//EN" "http://www.w3.org/Graphics/SVG/1.1/DTD/svg11.dtd">
<svg version="1.1" xmlns="http://www.w3.org/2000/svg" xmlns:xlink="http://www.w3.org/1999/xlink" width="1024" height="1024" viewBox="0 0 1024 1024">
<g id="icomoon-ignore">
</g>
<path fill="rgb(0, 0, 0)" d="M512 1024c-282.325 0-512-229.675-512-512s229.675-512 512-512c282.325 0 512 229.675 512 512s-229.675 512-512 512zM512 20.907c-270.805 0-491.093 220.288-491.093 491.093s220.288 491.093 491.093 491.093 491.093-220.288 491.093-491.093-220.288-491.093-491.093-491.093z"></path>
<path fill="rgb(0, 0, 0)" d="M506.667 473.344c0 47.128-38.205 85.333-85.333 85.333s-85.333-38.205-85.333-85.333c0-47.128 38.205-85.333 85.333-85.333s85.333 38.205 85.333 85.333z"></path>
<path fill="rgb(0, 0, 0)" d="M677.333 473.344c0 47.128-38.205 85.333-85.333 85.333s-85.333-38.205-85.333-85.333c0-47.128 38.205-85.333 85.333-85.333s85.333 38.205 85.333 85.333z"></path>
<path fill="rgb(0, 0, 0)" d="M657.963 527.467l-151.296 169.877-155.136-174.976 155.136-49.024z"></path>
</svg>
