<?xml version="1.0" encoding="utf-8"?>
<!-- Generated by IcoMoon.io -->
<!DOCTYPE svg PUBLIC "-//W3C//DTD SVG 1.1//EN" "http://www.w3.org/Graphics/SVG/1.1/DTD/svg11.dtd">
<svg version="1.1" xmlns="http://www.w3.org/2000/svg" xmlns:xlink="http://www.w3.org/1999/xlink" width="1024" height="1024" viewBox="0 0 1024 1024">
<g id="icomoon-ignore">
</g>
<path fill="rgb(0, 0, 0)" d="M629.333 725.333h-256c-17.643 0-32-14.357-32-32v-277.333c0-17.643 14.357-32 32-32h256c17.643 0 32 14.357 32 32v277.333c0 17.643-14.357 32-32 32zM373.333 405.333c-5.888 0-10.667 4.779-10.667 10.667v277.333c0 5.867 4.779 10.667 10.667 10.667h256c5.867 0 10.667-4.8 10.667-10.667v-277.333c0-5.888-4.8-10.667-10.667-10.667h-256z"></path>
<path fill="rgb(0, 0, 0)" d="M512 1024c-282.325 0-512-229.675-512-512s229.675-512 512-512c282.325 0 512 229.675 512 512s-229.675 512-512 512zM512 20.907c-270.805 0-491.093 220.288-491.093 491.093s220.288 491.093 491.093 491.093 491.093-220.288 491.093-491.093-220.288-491.093-491.093-491.093z"></path>
<path fill="rgb(0, 0, 0)" d="M502.229 319.701c47.232 0 85.632 38.421 85.632 85.632h20.139c0-58.325-47.467-105.771-105.771-105.771-58.325 0-105.771 47.445-105.771 105.771h20.139c0-47.211 38.421-85.632 85.632-85.632z"></path>
</svg>
