<?xml version="1.0" encoding="utf-8"?>
<!-- Generated by IcoMoon.io -->
<!DOCTYPE svg PUBLIC "-//W3C//DTD SVG 1.1//EN" "http://www.w3.org/Graphics/SVG/1.1/DTD/svg11.dtd">
<svg version="1.1" xmlns="http://www.w3.org/2000/svg" xmlns:xlink="http://www.w3.org/1999/xlink" width="1024" height="1024" viewBox="0 0 1024 1024">
<g id="icomoon-ignore">
</g>
<path d="M512 1024c-282.325 0-512-229.675-512-512s229.675-512 512-512c282.325 0 512 229.675 512 512s-229.675 512-512 512zM512 20.907c-270.805 0-491.093 220.288-491.093 491.093s220.288 491.093 491.093 491.093 491.093-220.288 491.093-491.093-220.288-491.093-491.093-491.093z"></path>
<path d="M507.435 713.344l-146.944-164.053c-1.749-1.984-3.563-3.904-5.355-5.803-4.395-4.651-8.939-9.451-12.8-15.125-18.219-26.773-21.995-60.48-10.133-90.197 11.904-29.824 38.016-51.755 69.845-58.667 6.549-1.408 13.248-2.133 19.904-2.133 36.651 0 69.269 20.971 85.44 52.075 16.256-31.659 49.173-51.904 86.763-51.904l4.629 0.107c42.752 1.899 80.939 35.243 88.832 77.547 5.909 31.851-2.304 60.48-24.448 85.12-18.645 20.736-37.205 41.536-55.744 62.379l-99.989 110.656zM421.973 398.677c-5.141 0-10.325 0.555-15.381 1.664-25.259 5.483-45.141 22.144-54.571 45.739-9.365 23.445-6.464 49.045 7.979 70.272 2.901 4.267 6.656 8.256 10.667 12.48 1.963 2.091 3.947 4.181 5.824 6.315l130.987 147.712 84.032-94.379c18.56-20.864 37.12-41.707 55.787-62.464 17.728-19.712 24.064-41.6 19.371-66.944-6.123-32.811-35.712-58.667-68.843-60.139l-3.669-0.085c-34.411 0-61.824 25.792-77.504 53.483-1.536 2.709-10.667 18.325-10.667 18.325l-9.003-20.011c-18.304-33.323-37.781-51.968-75.008-51.968z"></path>
</svg>
