<?xml version="1.0" encoding="utf-8"?>
<!-- Generated by IcoMoon.io -->
<!DOCTYPE svg PUBLIC "-//W3C//DTD SVG 1.1//EN" "http://www.w3.org/Graphics/SVG/1.1/DTD/svg11.dtd">
<svg version="1.1" xmlns="http://www.w3.org/2000/svg" xmlns:xlink="http://www.w3.org/1999/xlink" width="1024" height="1024" viewBox="0 0 1024 1024">
<g id="icomoon-ignore">
</g>
<path d="M511.872 1023.77c-282.266 0-511.872-229.658-511.872-511.898 0-282.214 229.606-511.872 511.872-511.872 282.24 0 511.898 229.658 511.898 511.872 0 282.24-229.658 511.898-511.898 511.898zM511.872 19.712c-271.411 0-492.16 220.749-492.16 492.16s220.774 492.186 492.186 492.186c271.36 0 492.186-220.774 492.186-492.186s-220.851-492.16-492.211-492.16z"></path>
<path d="M366.157 485.658l-0.742-2.304-0.589-2.995-0.41-1.638v-6.733l0.717-2.662 0.717-2.816 0.973-2.944 1.306-3.277 1.715-3.405 2.406-3.43v-2.406l0.23-2.253 0.384-3.046 1.024-3.43 0.947-3.686 0.768-1.69 0.87-1.587 1.126-1.766 1.229-1.306v-8.474l0.717-4.352 0.717-5.069 1.28-6.067 1.766-6.298 1.306-3.456 1.28-3.763 1.408-3.507 1.69-3.763 1.741-4.122 1.997-3.866 2.227-4.122 2.816-4.122 1.306-2.355 1.382-1.92 3.021-4.352 3.123-4.352 3.533-4.48 3.789-4.352 4.096-4.301 4.275-4.403 5.171-4.762 3.277-2.893 4.019-3.123 4.070-2.765 4.403-2.637 4.224-2.355 4.762-1.946 5.069-2.406 5.018-1.638 5.018-1.715 5.427-1.69 5.427-1.28 5.683-1.075 5.786-0.922 11.392-1.536 6.067-0.333h17.946l5.99 0.742 6.016 0.717 6.118 0.64 5.683 1.357 6.016 1.28 5.632 1.459 6.17 1.638 5.658 1.997 11.187 4.71 5.274 2.637 5.12 2.944 5.018 3.226 4.326 3.021 1.997 1.69 2.099 1.229 4.019 3.405 3.379 3.302 3.379 3.405 3.277 3.763 2.714 3.661 3.226 3.763 2.253 4.045 2.278 3.61 2.432 4.198 1.997 3.635 3.379 7.706 1.664 3.994 1.306 3.686 1.306 4.019 1.178 3.763 0.819 3.251 1.050 3.814 1.843 6.81 1.178 5.965 0.768 5.76 0.666 4.634 1.050 7.066 0.23 1.126 0.819 1.28 2.227 3.661 1.434 2.483 1.28 2.586 1.613 2.765 1.434 3.302 0.922 3.379 1.024 3.712 0.768 3.814 0.358 1.869 0.333 2.304v1.997l-0.333 1.997v2.483l-0.589 2.406-1.075 4.659-1.229 2.355-0.896 2.637v0.666l0.435 0.819 1.229 1.92 5.299 7.834 4.173 5.888 1.997 3.917 2.688 4.301 2.355 4.71 2.714 5.043 2.714 5.658 3.046 6.4 1.715 3.917 1.562 3.84 1.357 4.045 1.331 3.635 1.024 3.814 1.050 3.584 1.306 7.014 1.050 7.168 0.717 6.349v8.934l-0.486 3.174-0.691 5.478-0.947 4.915-1.459 4.454-0.538 1.818-1.024 2.202-0.845 1.536-1.152 1.869-0.998 1.178-1.28 1.536-1.152 1.229-1.229 1.050-1.459 0.64-1.306 0.64-1.075 0.358h-1.664l-1.050-0.358-1.997-0.998-0.922-0.666-0.973-0.691-1.050-0.947-1.075-1.050-1.766-1.946-1.997-2.714-1.638-2.842-1.638-2.278-1.587-2.637-2.253-4.71-2.534-4.89-0.307-0.179h-0.41l-1.024 0.768-0.589 1.28-0.998 1.587-1.715 4.762-2.586 6.758-3.328 8.141-2.509 4.045-2.611 4.224-3.123 4.762-3.302 4.659-1.69 2.099-2.048 2.304-4.71 4.634 0.41 0.41 0.64 0.666 2.355 1.382 9.83 4.71 4.275 2.406 4.096 2.355 4.045 2.944 3.61 3.046 1.741 1.382 1.306 1.587 1.357 1.843 1.126 1.997 0.589 1.664 0.742 1.971 0.307 1.715 0.358 1.997-0.358 1.331v1.357l-0.307 1.408-0.742 1.28-0.282 0.998-0.666 1.229-1.792 2.432-1.638 1.946-1.28 1.459-1.075 1.075-2.714 1.971-3.072 1.715-3.277 1.638-3.507 1.587-3.917 1.536-2.099 0.64-1.843 0.512-4.531 1.050-9.395 1.997-5.12 0.845-5.274 0.23-5.427 0.64h-16.794l-6.067-0.358-5.632-0.512-6.093-0.845-6.042-0.64-6.349-0.896-6.17-1.536-6.016-1.152-5.965-1.715-6.118-2.202-6.016-1.818-3.174-1.050-2.816-0.998-1.792-0.691-1.766-0.384h-4.992l-5.811-0.307-2.918-0.307-3.763-0.41-2.406 2.176-3.302 2.048-4.454 2.176-4.941 2.714-2.995 1.459-3.123 1.178-6.912 2.842-3.763 0.947-3.994 1.050-5.478 1.075-3.43 0.256-3.635 0.307-3.789 0.41-4.403 0.154h-17.997l-10.163-0.154-9.856-0.998-4.992-0.717-9.498-1.408-4.685-0.947-4.378-1.408-4.352-0.998-3.917-1.587-3.712-1.459-3.456-1.664-3.021-1.818-2.995-2.202-1.024-1.075-1.331-1.28-1.024-1.126-0.922-1.28-0.845-1.28-0.589-1.28-0.947-2.765-0.333-1.434-0.41-1.587v-1.459l0.41-1.664v-1.638l0.333-1.638v-3.302l0.154-1.741 0.794-1.997 0.64-1.997 1.178-2.406 0.87-0.922 0.717-1.075 1.869-2.278 1.485-1.178 1.408-0.819 1.306-1.050 2.048-0.64 1.638-0.998 2.048-1.050 2.33-0.691 2.355-0.717 2.714-0.589 2.586-0.333 3.072-0.41 3.328-0.256 0.87-0.282h0.179l0.41-0.358v-0.41l-0.614-0.819-1.766-0.845-4.403-3.814-2.97-2.355-3.43-2.995-3.456-3.354-3.584-4.275-4.122-4.838-1.536-2.611-2.048-2.688-1.766-3.123-1.587-3.405-2.125-3.251-1.382-3.686-1.664-3.686-1.664-4.122-1.203-3.942-1.152-4.89-0.333-0.179h-0.358l-0.179-0.358h-0.435l-0.691 0.358-0.358 0.179-0.486 0.819-0.179 0.998-0.358 0.896-0.614 1.485-2.022 3.584-1.050 2.176-1.664 1.894-1.766 2.278-1.946 2.534-2.048 2.253-2.406 2.176-2.227 2.048-2.483 1.613-2.688 1.69-2.586 0.998-3.072 0.768-2.995 0.282h-0.691l-0.691-0.282-0.538-1.203-0.87-0.589-1.152-2.816-0.717-1.536-0.768-2.202-0.64-2.278-0.333-2.253-0.947-5.094-0.358-3.021v-9.907l0.358-7.373 0.589-3.763 0.691-3.866 0.64-4.173 1.126-3.891 1.28-4.48 1.306-4.352 1.766-4.48 1.664-4.275 2.278-4.326 2.125-4.71 2.586-4.403 3.046-4.762 3.098-4.275 3.251-4.762 2.714-3.328 3.456-3.789 3.661-3.84 1.69-1.818 2.048-2.048 2.995-2.586 3.072-2.637 4.992-4.48 3.763-2.765 1.382-1.050z"></path>
</svg>
