<?xml version="1.0" encoding="utf-8"?>
<!-- Generator: Adobe Illustrator 16.0.0, SVG Export Plug-In . SVG Version: 6.00 Build 0)  -->
<!DOCTYPE svg PUBLIC "-//W3C//DTD SVG 1.1//EN" "http://www.w3.org/Graphics/SVG/1.1/DTD/svg11.dtd">
<svg version="1.1" id="图层_1" xmlns="http://www.w3.org/2000/svg" xmlns:xlink="http://www.w3.org/1999/xlink" x="0px" y="0px"
	 width="842px" height="595px" viewBox="0 0 842 595" enable-background="new 0 0 842 595" xml:space="preserve">
<path fill-rule="evenodd" clip-rule="evenodd" d="M284.037,503.807l8.93,29.58h4.885l4.771-14.059
	c1.041-3.18,1.953-6.296,2.688-9.842h0.121c0.734,3.483,1.587,6.418,2.629,9.779l4.525,14.121h4.886l9.54-29.58h-5.315
	l-4.225,14.848c-0.975,3.483-1.77,6.604-2.26,9.596h-0.184c-0.673-2.992-1.526-6.171-2.629-9.658l-4.58-14.785h-4.524l-4.828,15.03
	c-0.98,3.242-1.957,6.421-2.629,9.413h-0.183c-0.551-3.059-1.35-6.171-2.144-9.476l-3.967-14.968H284.037L284.037,503.807z
	 M329.423,503.807l8.927,29.58h4.892l4.763-14.059c1.041-3.18,1.954-6.296,2.688-9.842h0.13c0.729,3.483,1.584,6.418,2.621,9.779
	l4.525,14.121h4.892l9.534-29.58h-5.313l-4.221,14.848c-0.976,3.483-1.775,6.604-2.258,9.596h-0.191
	c-0.667-2.992-1.523-6.171-2.621-9.658l-4.589-14.785h-4.523l-4.823,15.03c-0.98,3.242-1.962,6.421-2.635,9.413h-0.183
	c-0.551-3.059-1.342-6.171-2.136-9.476l-3.975-14.968H329.423L329.423,503.807z M374.811,503.807l8.921,29.58h4.892l4.772-14.059
	c1.033-3.18,1.952-6.296,2.681-9.842h0.128c0.735,3.483,1.588,6.418,2.627,9.779l4.521,14.121h4.895l9.535-29.58h-5.318
	l-4.217,14.848c-0.979,3.483-1.774,6.604-2.262,9.596h-0.187c-0.672-2.992-1.528-6.171-2.626-9.658l-4.585-14.785h-4.522
	l-4.828,15.03c-0.98,3.242-1.959,6.421-2.632,9.413h-0.181c-0.547-3.059-1.346-6.171-2.141-9.476l-3.974-14.968H374.811
	L374.811,503.807z M422.765,534.07c2.197,0,3.661-1.663,3.661-3.859c0-2.269-1.464-3.854-3.605-3.854
	c-2.137,0-3.669,1.646-3.669,3.854c0,2.196,1.471,3.859,3.546,3.859H422.765L422.765,534.07z M428.835,503.807l10.883,27.257
	c0.306,0.669,0.43,1.099,0.43,1.403c0,0.308-0.187,0.734-0.43,1.295c-1.285,2.751-3.055,4.827-4.523,5.992
	c-1.588,1.345-3.364,2.201-4.704,2.625l1.34,4.467c1.351-0.246,3.912-1.166,6.603-3.425c3.675-3.243,6.295-8.373,10.146-18.528
	l8.076-21.086h-5.688l-5.873,17.356c-0.729,2.135-1.338,4.397-1.89,6.172h-0.124c-0.491-1.774-1.226-4.095-1.953-6.055
	l-6.424-17.474H428.835L428.835,503.807z M458.576,503.807l8.92,29.58h4.895l4.767-14.059c1.038-3.18,1.958-6.296,2.686-9.842h0.128
	c0.728,3.483,1.588,6.418,2.627,9.779l4.52,14.121h4.892l9.54-29.58h-5.321l-4.219,14.848c-0.973,3.483-1.77,6.604-2.259,9.596
	h-0.183c-0.675-2.992-1.533-6.171-2.629-9.658l-4.586-14.785h-4.522l-4.827,15.03c-0.979,3.242-1.959,6.421-2.634,9.413h-0.179
	c-0.552-3.059-1.346-6.171-2.142-9.476l-3.977-14.968H458.576L458.576,503.807z M527.184,515.229
	c0-5.925-2.199-12.096-11.309-12.096c-3.724,0-7.335,1.034-9.781,2.562l1.226,3.609c2.078-1.408,4.954-2.202,7.766-2.202
	c6.052-0.063,6.724,4.398,6.724,6.851v0.607c-11.433-0.059-17.789,3.85-17.789,11.001c0,4.28,3.055,8.51,9.044,8.51
	c4.219,0,7.458-2.091,9.053-4.412h0.181l0.486,3.729h4.83c-0.307-2.014-0.43-4.524-0.43-7.092V515.229L527.184,515.229z
	 M521.932,523.424c0,0.548-0.062,1.16-0.244,1.71c-0.859,2.499-3.363,4.951-7.276,4.951c-2.694,0-5.014-1.589-5.014-5.13
	c0-5.751,6.66-6.793,12.534-6.672V523.424L521.932,523.424z M535.466,533.387h5.376V517.55c0-0.852,0.067-1.709,0.188-2.504
	c0.732-3.97,3.425-6.846,7.217-6.846c0.727,0,1.281,0.063,1.83,0.12v-5.073c-0.491-0.057-0.915-0.114-1.469-0.114
	c-3.608,0-6.908,2.501-8.248,6.474h-0.192l-0.237-5.8h-4.71c0.188,2.747,0.246,5.743,0.246,9.226V533.387L535.466,533.387z
	 M557.805,498.362v5.444h-4.583v4.089h4.583v16.076c0,3.49,0.612,6.113,2.081,7.761c1.281,1.412,3.3,2.273,5.804,2.273
	c2.081,0,3.729-0.365,4.771-0.74l-0.247-4.1c-0.795,0.245-1.651,0.37-3.116,0.37c-2.996,0-4.038-2.074-4.038-5.747v-15.894h7.704
	v-4.089h-7.704v-7.103L557.805,498.362L557.805,498.362z M578.804,534.07c2.196,0,3.66-1.663,3.66-3.859
	c0-2.269-1.464-3.854-3.603-3.854c-2.14,0-3.67,1.646-3.67,3.854c0,2.196,1.468,3.859,3.543,3.859H578.804L578.804,534.07z
	 M608.966,528.25c-1.533,0.67-3.552,1.408-6.609,1.408c-5.868,0-10.266-4.222-10.266-11.066c0-6.108,3.665-11.187,10.449-11.187
	c2.937,0,4.955,0.732,6.232,1.406l1.225-4.095c-1.461-0.794-4.273-1.584-7.457-1.584c-9.654,0-15.889,6.656-15.889,15.767
	c0,9.043,5.805,15.106,14.731,15.106c3.976,0,7.092-1.049,8.493-1.723L608.966,528.25L608.966,528.25z M627.571,534.07
	c7.028,0,14.669-4.78,14.669-15.787c0-8.979-5.748-15.15-14.24-15.15c-8.128,0-14.675,5.805-14.675,15.704
	c0,9.35,6.242,15.233,14.188,15.233H627.571L627.571,534.07z M627.691,530.023c-5.188,0-8.859-4.89-8.859-11.369
	c0-5.622,2.749-11.496,9.043-11.496c6.359,0,8.868,6.304,8.868,11.313c0,6.72-3.854,11.552-8.99,11.552H627.691L627.691,530.023z
	 M648.686,533.387h5.262v-17.851c0-0.92,0.118-1.835,0.428-2.626c0.857-2.696,3.363-5.375,6.662-5.375
	c4.095,0,6.172,3.353,6.172,8.065v17.786h5.251v-18.341c0-0.911,0.191-1.894,0.438-2.688c0.974-2.568,3.3-4.822,6.417-4.822
	c4.274,0,6.416,3.353,6.416,9.104v16.747h5.262v-17.421c0-10.271-5.81-12.833-9.784-12.833c-2.813,0-4.707,0.727-6.479,2.076
	c-1.225,0.91-2.444,2.134-3.364,3.849h-0.12c-1.286-3.483-4.339-5.925-8.314-5.925c-4.948,0-7.698,2.624-9.351,5.433h-0.188
	l-0.242-4.759h-4.712c0.127,2.442,0.247,4.885,0.247,8.001V533.387z"/>
<path d="M583.698,23.187h-0.256l2.284-8.262h-91.181l-2.271,7.732l-1.533-5.541l-2.891-10.449h10.828h91.176h6.156l1.748,5.935
	l59.92,203.813l59.924-203.813l1.749-5.935h6.157h91.175h10.826l-2.887,10.449L716.631,407.659l-1.319,4.773l0.38,1.293h-0.736
	h-6.259h-6.831h-84.349h-6.831h-10.342l-62.417-225.96l8.546-30.889l62.383,225.605l40.24-136.859L583.698,23.187L583.698,23.187z
	 M805.86,23.187h-74.188L621.703,397.21h80.162h0.573L805.86,23.187z"/>
<path d="M351.52,23.187h-0.43l2.225-8.262h-91.176l-2.059,7.659l-1.513-5.467l-2.891-10.449H266.5h91.176h6.159l1.744,5.935
	l64.824,220.481l-8.587,29.208L351.52,23.187L351.52,23.187z M479.358,399.585l-1.626,5.883h-6.83h-84.348h-6.831l2.428-8.258
	h-0.829h-0.572l-66.053-238.878l-8.428,31.303l60.284,218.024l1.679,6.066h6.258h6.832h84.348h6.831h11.012l-3.108-10.58
	L479.358,399.585z"/>
<path d="M134.115,23.187h-74.09l96.939,350.572l36.558-135.742L134.115,23.187L134.115,23.187z M49.2,6.667h91.173h6.261
	l1.675,6.065l61.688,223.088l0.607,2.191l-0.573,2.129l-44.988,167.052l-7.855,29.169l-8.047-29.107L41.26,17.117L38.37,6.667H49.2z
	"/>
<path d="M117.805,582.602h74.097L342.549,23.187h-74.091L117.805,582.602L117.805,582.602z M198.218,599.12H107.04H96.276
	l2.797-10.392L254.171,12.795l1.65-6.127h6.316h91.176h10.769l-2.798,10.386L206.187,592.987l-1.65,6.133H198.218z"/>
<path d="M494.546,6.667h91.181h10.819l-2.886,10.449L485.669,407.659l-1.681,6.066h-6.256h-6.83h-84.348h-6.831h-11.017l3.113-10.58
	L486.644,12.603l1.745-5.935H494.546L494.546,6.667z M574.896,23.187h-74.19L390.739,397.21h80.163h0.572L574.896,23.187z"/>
</svg>
